# File produced by Open Asset Import Library (http://www.assimp.sf.net)
# (assimp v5.0.1588609223)

mtllib result.mtl

# 58 vertex positions
v  1.2495608e-08 0.19360279 0.1086334
v  -8.1565453e-08 -0.19951729 0.10859367
v  0.047116928 -0.19951729 0.097839542
v  0.084901862 -0.19951731 0.067707099
v  0.084933013 0.19360277 0.067731805
v  0.10587091 -0.19951734 0.024164423
v  0.10587092 -0.19951734 -0.024164293
v  0.10590976 0.19360274 -0.024173208
v  0.084901907 -0.19951734 -0.06770698
v  0.084933057 0.19360274 -0.067731805
v  0.047116995 -0.19951734 -0.097839452
v  -1.77819e-09 -0.19951732 -0.10859361
v  9.2308795e-08 0.19360276 -0.10863346
v  -0.04711701 -0.19951732 -0.097839482
v  -0.047134161 0.19360276 -0.097875342
v  -0.084901951 -0.19951731 -0.067707039
v  -0.105871 -0.19951728 -0.024164369
v  -0.10590966 0.1936028 -0.024173276
v  -0.10587101 -0.19951728 0.024164362
v  -0.10590968 0.1936028 0.02417315
v  -0.084901996 -0.19951728 0.067707069
v  -0.084932968 0.1936028 0.067731783
v  -0.047117077 -0.19951728 0.097839512
v  -0.013136836 -0.20163065 0.027174205
v  -4.5466219e-05 -0.20163065 0.030182965
v  -0.047134228 0.1936028 0.097875252
v  -4.9048509e-08 -0.21826485 0.027997103
v  -0.012147516 -0.21826485 0.025224527
v  -3.9551015e-08 -0.21826485 3.2957068e-08
v  -0.023569698 -0.20163065 0.018854277
v  -0.029436329 -0.20163065 0.0066720848
v  -0.029436326 -0.20163065 -0.0066720438
v  -0.023569686 -0.20163065 -0.018854242
v  -0.013055006 -0.20163065 -0.027213559
v  -4.5441873e-05 -0.20163065 -0.030182905
v  0.013054936 -0.20163065 -0.027213549
v  0.023569614 -0.20163065 -0.018854208
v  0.029416036 -0.20163065 -0.0067605651
v  0.029416032 -0.20163065 0.006760641
v  0.023569603 -0.20163065 0.018854283
v  0.013136738 -0.20163065 0.027174214
v  -0.021889033 -0.21826485 0.017455928
v  -0.027295168 -0.21826485 0.0062299622
v  -0.027295165 -0.21826485 -0.0062299147
v  -0.021889031 -0.21826485 -0.017455876
v  -0.012147503 -0.21826485 -0.025224468
v  -2.9008863e-08 -0.21826485 -0.027997036
v  0.012147443 -0.21826485 -0.02522446
v  0.021888964 -0.21826485 -0.017455852
v  0.027295098 -0.21826485 -0.0062298924
v  0.027295094 -0.21826485 0.0062299762
v  0.021888953 -0.21826485 0.017455934
v  0.012147427 -0.21826485 0.025224535
v  4.5365656e-08 0.19360277 -2.9233197e-08
v  -0.084932923 0.19360277 -0.067731902
v  0.047134358 0.19360274 -0.097875312
v  0.10590975 0.19360274 0.024173202
v  0.047134273 0.19360279 0.097875282

# 0 UV coordinates

# 58 vertex normals
vn -1.8699689e-07 0.66023737 0.75103003
vn -3.0416402e-07 -0.65144819 0.75869012
vn 0.32917237 -0.65144819 0.68355364
vn 0.59315753 -0.65144819 0.47300655
vn 0.58717602 0.66023737 0.46824569
vn 0.73964649 -0.65144819 0.16879809
vn 0.73964661 -0.65144819 -0.16879767
vn 0.73220021 0.66023737 -0.16711909
vn 0.59315789 -0.65144819 -0.47300619
vn 0.58717638 0.66023737 -0.46824527
vn 0.32917279 -0.65144807 -0.68355352
vn 1.9026123e-07 -0.65144807 -0.75869012
vn 3.0243643e-07 0.66023749 -0.75103003
vn -0.32917249 -0.65144807 -0.6835537
vn -0.32584587 0.66023743 -0.67665642
vn -0.59315765 -0.65144807 -0.47300658
vn -0.73964661 -0.65144807 -0.16879815
vn -0.73219997 0.66023749 -0.16711956
vn -0.73964673 -0.65144807 0.16879761
vn -0.73220009 0.66023749 0.16711915
vn -0.59315801 -0.65144807 0.47300616
vn -0.58717626 0.66023749 0.46824533
vn -0.32917291 -0.65144819 0.68355346
vn -0.26612163 -0.79085666 0.5510726
vn -0.0004885646 -0.79107028 0.61168242
vn -0.32584628 0.66023743 0.67665631
vn 0.0002743745 -0.70769376 0.70647293
vn -0.30643663 -0.70781577 0.63643289
vn -8.7420098e-08 -0.99996948 -4.3710056e-08
vn -0.4781642 -0.79100919 0.38160327
vn -0.59648436 -0.79100919 0.13589869
vn -0.59648424 -0.79100919 -0.13589914
vn -0.47791979 -0.79107022 -0.38175622
vn -0.26490054 -0.79085666 -0.55165267
vn -0.00067127694 -0.79085666 -0.61198771
vn 0.26462612 -0.79091769 -0.55171353
vn 0.47779784 -0.79091775 -0.3822442
vn 0.5962401 -0.79107034 -0.13657017
vn 0.59623998 -0.79107034 0.1365705
vn 0.47804177 -0.79085672 0.38209185
vn 0.26563287 -0.79100925 0.55107278
vn -0.5525378 -0.70769364 0.44025981
vn -0.68871135 -0.70769364 0.15747525
vn -0.68871123 -0.70769364 -0.15747575
vn -0.55253756 -0.70769364 -0.44026023
vn -0.30649725 -0.70781577 -0.63640261
vn 3.0686799e-05 -0.70781571 -0.7063815
vn 0.30649754 -0.70781577 -0.63640243
vn 0.55229354 -0.70781583 -0.44038194
vn 0.6888333 -0.70769376 -0.15692598
vn 0.68883318 -0.70769376 0.15692636
vn 0.5522933 -0.70781583 0.44038224
vn 0.3062835 -0.7076937 0.63664669
vn 8.7422762e-08 1 4.3711388e-08
vn -0.58717591 0.66023749 -0.46824563
vn 0.3258464 0.66023743 -0.67665625
vn 0.73220009 0.66023737 0.16711962
vn 0.32584599 0.66023743 0.67665648

# Mesh 'Cylinder.001' with 112 faces
g Cylinder.001
usemtl DefaultMaterial
f  1//1 2//2 3//3
f  3//3 4//4 5//5
f  5//5 4//4 6//6
f  6//6 7//7 8//8
f  7//7 9//9 10//10
f  10//10 9//9 11//11
f  11//11 12//12 13//13
f  12//12 14//14 15//15
f  15//15 14//14 16//16
f  16//16 17//17 18//18
f  17//17 19//19 20//20
f  19//19 21//21 22//22
f  23//23 24//24 25//25
f  23//23 2//2 1//1
f  21//21 23//23 26//26
f  27//27 28//28 29//29
f  25//25 24//24 28//28
f  21//21 30//30 24//24
f  19//19 31//31 30//30
f  17//17 32//32 31//31
f  16//16 33//33 32//32
f  14//14 34//34 33//33
f  12//12 35//35 34//34
f  12//12 11//11 36//36
f  11//11 9//9 37//37
f  9//9 7//7 38//38
f  6//6 39//39 38//38
f  4//4 40//40 39//39
f  4//4 3//3 41//41
f  3//3 2//2 25//25
f  24//24 30//30 42//42
f  30//30 31//31 43//43
f  32//32 44//44 43//43
f  33//33 45//45 44//44
f  33//33 34//34 46//46
f  35//35 47//47 46//46
f  36//36 48//48 47//47
f  37//37 49//49 48//48
f  38//38 50//50 49//49
f  39//39 51//51 50//50
f  39//39 40//40 52//52
f  40//40 41//41 53//53
f  41//41 25//25 27//27
f  26//26 1//1 54//54
f  22//22 26//26 54//54
f  20//20 22//22 54//54
f  18//18 20//20 54//54
f  55//55 18//18 54//54
f  15//15 55//55 54//54
f  13//13 15//15 54//54
f  56//56 13//13 54//54
f  10//10 56//56 54//54
f  8//8 10//10 54//54
f  57//57 8//8 54//54
f  5//5 57//57 54//54
f  58//58 5//5 54//54
f  1//1 58//58 54//54
f  53//53 27//27 29//29
f  52//52 53//53 29//29
f  51//51 52//52 29//29
f  50//50 51//51 29//29
f  49//49 50//50 29//29
f  48//48 49//49 29//29
f  47//47 48//48 29//29
f  46//46 47//47 29//29
f  45//45 46//46 29//29
f  44//44 45//45 29//29
f  43//43 44//44 29//29
f  42//42 43//43 29//29
f  28//28 42//42 29//29
f  58//58 1//1 3//3
f  58//58 3//3 5//5
f  57//57 5//5 6//6
f  57//57 6//6 8//8
f  8//8 7//7 10//10
f  56//56 10//10 11//11
f  56//56 11//11 13//13
f  13//13 12//12 15//15
f  55//55 15//15 16//16
f  55//55 16//16 18//18
f  18//18 17//17 20//20
f  20//20 19//19 22//22
f  2//2 23//23 25//25
f  26//26 23//23 1//1
f  22//22 21//21 26//26
f  27//27 25//25 28//28
f  23//23 21//21 24//24
f  21//21 19//19 30//30
f  19//19 17//17 31//31
f  17//17 16//16 32//32
f  16//16 14//14 33//33
f  14//14 12//12 34//34
f  35//35 12//12 36//36
f  36//36 11//11 37//37
f  37//37 9//9 38//38
f  7//7 6//6 38//38
f  6//6 4//4 39//39
f  40//40 4//4 41//41
f  41//41 3//3 25//25
f  28//28 24//24 42//42
f  42//42 30//30 43//43
f  31//31 32//32 43//43
f  32//32 33//33 44//44
f  45//45 33//33 46//46
f  34//34 35//35 46//46
f  35//35 36//36 47//47
f  36//36 37//37 48//48
f  37//37 38//38 49//49
f  38//38 39//39 50//50
f  51//51 39//39 52//52
f  52//52 40//40 53//53
f  53//53 41//41 27//27

